<svg width="449" height="99" viewBox="0 0 449 99" fill="none" xmlns="http://www.w3.org/2000/svg">
<path d="M162.812 34.3935V21.5455H218.136V34.3935H198.288V87H182.692V34.3935H162.812ZM225.862 87V37.9091H241.491V87H225.862ZM233.692 32.1882C231.498 32.1882 229.612 31.4638 228.035 30.0149C226.459 28.5447 225.67 26.7763 225.67 24.7095C225.67 22.6641 226.459 20.9169 228.035 19.468C229.612 17.9979 231.498 17.2628 233.692 17.2628C235.908 17.2628 237.794 17.9979 239.349 19.468C240.926 20.9169 241.714 22.6641 241.714 24.7095C241.714 26.7763 240.926 28.5447 239.349 30.0149C237.794 31.4638 235.908 32.1882 233.692 32.1882ZM274.354 87.9268C269.176 87.9268 264.734 86.8615 261.026 84.7308C257.34 82.6001 254.506 79.6385 252.525 75.8459C250.543 72.032 249.553 67.6214 249.553 62.6143C249.553 57.5859 250.543 53.1754 252.525 49.3828C254.528 45.5689 257.372 42.5966 261.058 40.4659C264.766 38.3352 269.187 37.2699 274.322 37.2699C278.86 37.2699 282.813 38.0902 286.179 39.7308C289.567 41.3714 292.209 43.6939 294.105 46.6982C296.023 49.6811 297.035 53.1861 297.141 57.2131H282.536C282.237 54.6989 281.385 52.728 279.979 51.3004C278.594 49.8729 276.783 49.1591 274.545 49.1591C272.734 49.1591 271.147 49.6705 269.783 50.6932C268.42 51.6946 267.354 53.1861 266.587 55.1676C265.842 57.1278 265.469 59.5568 265.469 62.4545C265.469 65.3523 265.842 67.8026 266.587 69.8054C267.354 71.7869 268.42 73.2891 269.783 74.3118C271.147 75.3132 272.734 75.8139 274.545 75.8139C275.994 75.8139 277.273 75.505 278.381 74.8871C279.51 74.2692 280.437 73.3636 281.161 72.1705C281.886 70.956 282.344 69.4858 282.536 67.7599H297.141C296.992 71.8082 295.98 75.3452 294.105 78.3707C292.251 81.3963 289.641 83.7507 286.275 85.4339C282.93 87.0959 278.956 87.9268 274.354 87.9268ZM319.234 74.12L319.298 55.4872H321.471L335.278 37.9091H352.984L332.465 63.0938H328.343L319.234 74.12ZM305.139 87V21.5455H320.768V87H305.139ZM335.629 87L322.781 66.6094L333.073 55.5192L353.687 87H335.629ZM379.503 87.9268C374.368 87.9268 369.936 86.9148 366.207 84.8906C362.5 82.8452 359.645 79.9368 357.642 76.1655C355.661 72.3729 354.67 67.8665 354.67 62.6463C354.67 57.5753 355.671 53.1435 357.674 49.3509C359.677 45.5369 362.5 42.5753 366.143 40.4659C369.787 38.3352 374.08 37.2699 379.023 37.2699C382.518 37.2699 385.714 37.8132 388.612 38.8999C391.509 39.9865 394.013 41.5952 396.122 43.7259C398.232 45.8565 399.872 48.4879 401.044 51.62C402.216 54.7308 402.802 58.2997 402.802 62.3267V66.2259H360.135V57.1491H388.26C388.239 55.4872 387.844 54.0064 387.077 52.7067C386.31 51.407 385.256 50.3949 383.913 49.6705C382.592 48.9247 381.069 48.5518 379.343 48.5518C377.596 48.5518 376.03 48.946 374.645 49.7344C373.26 50.5014 372.163 51.5561 371.353 52.8984C370.543 54.2195 370.117 55.7216 370.075 57.4048V66.6413C370.075 68.6442 370.469 70.402 371.257 71.9148C372.045 73.4062 373.164 74.5675 374.613 75.3984C376.062 76.2294 377.788 76.6449 379.79 76.6449C381.175 76.6449 382.433 76.4531 383.562 76.0696C384.691 75.6861 385.661 75.1214 386.47 74.3757C387.28 73.63 387.887 72.7138 388.292 71.6271L402.642 72.0426C402.045 75.2599 400.735 78.0618 398.711 80.4482C396.708 82.8132 394.077 84.6562 390.817 85.9773C387.557 87.277 383.786 87.9268 379.503 87.9268ZM410.784 87V37.9091H425.965V46.858H426.476C427.371 43.6193 428.831 41.2116 430.855 39.6349C432.879 38.0369 435.233 37.2379 437.918 37.2379C438.643 37.2379 439.388 37.2912 440.155 37.3977C440.922 37.483 441.636 37.6214 442.297 37.8132V51.3963C441.551 51.1406 440.571 50.9382 439.356 50.7891C438.163 50.6399 437.098 50.5653 436.16 50.5653C434.307 50.5653 432.634 50.9808 431.143 51.8118C429.672 52.6214 428.511 53.7614 427.659 55.2315C426.828 56.6804 426.412 58.3849 426.412 60.3452V87H410.784Z" fill="#FA602D"/>
<path fill-rule="evenodd" clip-rule="evenodd" d="M41.2383 77.8933L56.554 69.142L26.0809 50.8144L26.3484 8.4483L76.6131 38.2026L76.9749 98.5267L41.2383 77.8933ZM55.7267 78.1934L69.4727 86.1297L69.3082 69.9069L55.7267 78.1934ZM69.7116 67.9396L69.2755 42.0292L32.9873 21.0782L33.4233 46.9886L69.7116 67.9396Z" fill="#FA602D"/>
<path fill-rule="evenodd" clip-rule="evenodd" d="M118.762 78.085L103.446 69.3337L133.919 51.0061L133.651 8.64001L83.3867 38.3943L83.025 98.7184L118.762 78.085ZM104.273 78.3851L90.5272 86.3214L90.6917 70.0986L104.273 78.3851ZM90.2883 68.1313L90.7244 42.2209L127.013 21.2699L126.577 47.1803L90.2883 68.1313Z" fill="#040458"/>
</svg>
